<?xml version="1.0" encoding="UTF-8"?>
<svg id="_レイヤー_2" data-name="レイヤー 2" xmlns="http://www.w3.org/2000/svg" viewBox="0 0 533.19 752.34">
  <defs>
    <style>
      .cls-1 {
        fill: #e26917;
      }

      .cls-1, .cls-2, .cls-3, .cls-4, .cls-5, .cls-6, .cls-7, .cls-8, .cls-9, .cls-10, .cls-11, .cls-12, .cls-13, .cls-14, .cls-15, .cls-16, .cls-17, .cls-18, .cls-19, .cls-20, .cls-21, .cls-22, .cls-23, .cls-24 {
        stroke-width: 0px;
      }

      .cls-2 {
        fill: #ffec64;
      }

      .cls-3 {
        fill: #bc801e;
      }

      .cls-4 {
        fill: #ffe14d;
      }

      .cls-5 {
        fill: #ff9739;
      }

      .cls-6 {
        fill: #d39a23;
      }

      .cls-7 {
        fill: #ffc52e;
      }

      .cls-8 {
        fill: none;
      }

      .cls-9, .cls-17 {
        fill: #791628;
      }

      .cls-10 {
        fill: #1e2672;
      }

      .cls-11 {
        fill: #ddc84b;
      }

      .cls-12 {
        fill: #fff;
      }

      .cls-13 {
        fill: #3a1919;
      }

      .cls-14 {
        fill: #d89b27;
      }

      .cls-15 {
        fill: #d3d3d3;
      }

      .cls-16 {
        fill: #ffea94;
      }

      .cls-17 {
        fill-rule: evenodd;
      }

      .cls-18 {
        fill: #a31e36;
      }

      .cls-19 {
        fill: #605555;
      }

      .cls-20 {
        fill: #938282;
      }

      .cls-21 {
        fill: #2e3499;
      }

      .cls-22 {
        fill: #c6b44b;
      }

      .cls-23 {
        fill: #cecece;
      }

      .cls-24 {
        fill: #ea911b;
      }
    </style>
  </defs>
  <g id="_レイヤー_1-2" data-name="レイヤー 1">
    <g>
      <g>
        <path class="cls-9" d="m225.8,442.94s-33.83,16.43-49.04,17.26c-24.72,1.34-75-45.57-75-45.57l31.85-47.66s38.36,23.63,49.53,28.69c6.23,2.82,48.66-25.1,65.69,9.57,10.96,22.32-23.03,37.71-23.03,37.71Z"/>
        <path class="cls-13" d="m175.77,464.22c-26.41,0-74.67-44.74-76.74-46.67-1.43-1.34-1.69-3.52-.6-5.15l31.85-47.66c1.2-1.79,3.59-2.31,5.42-1.18.38.23,37.53,23.1,48.76,28.3,1.37-.04,5.26-1.32,8.42-2.36,15.85-5.2,45.36-14.89,59.53,13.96,2.99,6.1,3.4,12.29,1.2,18.41-5.36,14.93-24.71,24.03-26.12,24.67-1.95.95-34.83,16.78-50.53,17.64-.4.02-.8.03-1.21.03Zm-68.78-50.23c15.46,13.97,51.72,43.15,69.55,42.21,14.24-.78,47.18-16.7,47.51-16.86.03-.02.06-.03.1-.05.29-.13,17.69-8.2,21.95-20.13,1.45-4.06,1.17-8.04-.86-12.17-10.25-20.86-30.25-16.32-49.86-9.89-7,2.3-10.86,3.56-13.89,2.2-9.46-4.28-37.09-21.04-46.7-26.91l-27.81,41.61Z"/>
      </g>
      <g>
        <path class="cls-4" d="m82.61,390.06c9.08,17.28,17.08,15.49,31.19,24.24,16.12,10,19.65,5.23,27.56-4.49,6.37-7.82,12.79-18.3,15.97-38.71,1.41-4.56-14.24-14.47-29.76-23.84-10.78-6.51-20.11-7.32-27.32-4.6-15.69,6.48-24.93,28.56-17.64,47.39Z"/>
        <path class="cls-24" d="m89.07,398.78c7.47,11.57,14.67,8.85,24.73,15.52,11.49,7.62,13.45,5.5,17.84.11,7.18-3.27,11.18-8.03,17.51-20.47.54-2.73-23.04-10.86-34.08-18.03-7.67-4.99-13.89-6.29-18.41-5.21-9.8,2.7-14,15.7-7.59,28.08Z"/>
        <path class="cls-13" d="m127.98,423.85c-4.18,0-9.32-1.83-16.29-6.15-3.94-2.44-7.33-4-10.6-5.5-8.03-3.68-14.97-6.87-22.02-20.28-.07-.14-.13-.28-.19-.42-7.87-20.37,1.4-44.92,19.85-52.53.04-.02.08-.03.12-.04,6.36-2.4,16.86-3.49,30.79,4.92,23.56,14.22,33.3,21.37,31.61,28.1-3.4,21.6-10.39,32.54-16.79,40.39l-.34.41c-5.3,6.52-9.53,11.1-16.14,11.1Zm-41.72-35.44c5.73,10.82,10.69,13.09,18.16,16.52,3.34,1.53,7.12,3.27,11.48,5.97,6.46,4,10.75,5.51,13.51,4.74,2.63-.73,5.09-3.75,8.5-7.94l.34-.42c5.73-7.04,12-16.9,15.1-36.7-2.02-4.3-21.41-16-27.86-19.9-8.83-5.33-17.05-6.82-23.78-4.31-14.24,5.93-21.57,25.89-15.46,42.02Z"/>
      </g>
      <g>
        <rect class="cls-18" x="103.46" y="353.23" width="50.78" height="81.31" transform="translate(255.41 -.74) rotate(35.9)"/>
        <path class="cls-9" d="m132.12,346.06l-14.44,19.96c.02,4.21,1.16,8.51,4.15,12.55,7.42,9.99,20.81,19.85,30.48,26.21l20.95-28.94-41.13-29.77Z"/>
        <rect class="cls-2" x="119.96" y="353.23" width="17.77" height="81.31" transform="translate(255.41 -.74) rotate(35.9)"/>
        <g>
          <polygon class="cls-2" points="145.48 355.74 125.65 383.15 97.81 421.61 112.21 432.03 138.89 395.17 159.88 366.16 145.48 355.74"/>
          <path class="cls-11" d="m145.48,355.74l-19.84,27.41c3.85,4.21,8.51,8.3,13.24,12.02l21-29.01-14.4-10.42Z"/>
        </g>
        <path class="cls-13" d="m125.57,445.7c-.81,0-1.63-.25-2.34-.76l-41.13-29.77c-.86-.62-1.44-1.56-1.6-2.61s.09-2.12.71-2.98l47.68-65.87c1.3-1.79,3.8-2.19,5.59-.89l41.13,29.77c.86.62,1.44,1.56,1.6,2.61s-.09,2.12-.71,2.98l-47.68,65.87c-.78,1.08-2,1.65-3.24,1.65Zm-35.55-34.67l34.65,25.08,42.98-59.39-34.65-25.08-42.99,59.39Z"/>
      </g>
      <path class="cls-5" d="m179.25,294.24l-12.06,13.03c-18.67,12.98-40.33,24.46-50.38,26.7-1.6.35-2.96,1-4.05,1.91-2.23,1.85-3.22,4.81-2.54,7.59.31,1.28.96,2.45,1.87,3.4,1.08,1.2,2.14,2.11,3.41,2.97,9.74,6.57,29.45,6.76,55.18-.11l6.85-1.83c-4.43-15.91-10.21-32.95,1.73-53.66Z"/>
      <path class="cls-1" d="m175.77,295.92l-12.06,13.03c-9.05,6.29-19.06,12.51-27.86,17.22,1.76,19.44-8.07,28.26-8.07,28.26,8.58-.37,28.22-.04,39.4-3.03l6.85-1.83c-4.43-15.91-10.21-32.95,1.73-53.66Z"/>
      <path class="cls-13" d="m137.18,358.83c-10.18,0-18.33-1.89-23.94-5.68-1.55-1.05-2.85-2.18-4.11-3.57-1.37-1.44-2.34-3.23-2.81-5.16-1.04-4.26.48-8.82,3.87-11.63,1.58-1.32,3.51-2.24,5.74-2.74,9.39-2.09,30.68-13.41,48.61-25.83l11.77-12.71c1.38-1.5,3.67-1.71,5.31-.5,1.64,1.21,2.11,3.46,1.09,5.22-10.48,18.16-6.19,33.37-2.05,48.07l.71,2.52c.29,1.03.15,2.13-.38,3.06-.53.93-1.41,1.6-2.44,1.88l-6.85,1.83c-13.08,3.49-24.73,5.24-34.51,5.24Zm31.68-47.86c-19.2,13.28-40.64,24.56-51.2,26.9-.96.21-1.76.58-2.36,1.08-1.06.88-1.53,2.27-1.22,3.57.15.59.45,1.14.87,1.58.03.03.06.06.08.09.84.94,1.65,1.64,2.68,2.33,8.77,5.92,28.18,5.67,51.9-.66l2.94-.78c-2.9-10.32-5.82-21.55-3.7-34.11Z"/>
      <path class="cls-5" d="m409.01,601.89c-12.74,8.77-25.19,15.08-36.99,19.63l-.76,1.39c-26.78,49-84.91,86.67-135.21,87.62-25.07.45-44.5-8.97-54.87-26.42-13.76-23.13-35.28-31.54-49.43-27.9-10.35,2.67-16.51,11.39-16.92,23.93-.35,10.82,8.24,24.2,23.55,36.72,20.89,17.08,53.81,31.47,87.32,31.47,8.29,0,16.63-.88,24.82-2.82,69.54-16.47,133.22-70.69,154.85-131.86l3.76-11.86s-.09.06-.13.09Z"/>
      <path class="cls-1" d="m401.12,607.03c-24.9,56.7-85.15,105.65-150.6,121.15-8.19,1.94-16.53,2.82-24.82,2.82-33.51,0-66.43-14.39-87.32-31.47-11.47-9.38-19.16-19.24-22.16-28.14-.82,2.65-1.29,5.58-1.39,8.76-.35,10.82,8.24,24.2,23.55,36.72,20.89,17.08,53.81,31.47,87.32,31.47,8.29,0,16.63-.88,24.82-2.82,69.54-16.47,133.21-70.69,154.85-131.86l3.76-11.86s-.09.06-.13.09c-2.64,1.82-5.27,3.53-7.88,5.14Z"/>
      <path class="cls-13" d="m225.7,752.34c-37.05,0-70.71-16.72-89.85-32.37-16.29-13.32-25.41-27.88-25.02-39.95.46-14.24,7.9-24.58,19.92-27.68,15.6-4.01,39.11,4.92,53.87,29.73,9.63,16.2,27.88,24.9,51.36,24.47,48.97-.93,105.62-37.71,131.77-85.54l.76-1.39c.45-.83,1.19-1.47,2.07-1.81,12.51-4.83,24.68-11.29,36.16-19.2,0,0,0,0,0,0,1.4-.99,3.32-1.01,4.71,0,1.39,1.01,2.02,2.77,1.5,4.41l-3.76,11.86s-.03.08-.04.12c-22.07,62.38-86.91,117.66-157.7,134.42-8.21,1.94-16.87,2.93-25.74,2.93Zm-87.09-92.96c-2.07,0-4.04.24-5.87.71-8.62,2.22-13.56,9.39-13.91,20.19-.3,9.42,7.95,21.94,22.08,33.5,18.08,14.78,49.84,30.56,84.79,30.56,8.25,0,16.29-.91,23.9-2.71,68.26-16.17,130.75-69.31,151.98-129.24l.37-1.17c-8.76,5.31-17.85,9.83-27.12,13.5l-.06.12c-27.41,50.16-87.02,88.72-138.64,89.7-26.48.48-47.22-9.6-58.38-28.38-10.91-18.34-26.8-26.78-39.13-26.78Z"/>
      <path id="silhouette" class="cls-4" d="m408.45,617.24c22.36-15.46,50.33-50.34,56.91-128.79,4.07-48.46-1.61-103.23-14.45-139.54-3.75-10.59-8.09-20.74-13.3-30.09-20.69-37.15-43.47-52.03-43.49-52.04-1.27-.97-2.55-1.92-3.86-2.85-1.76-1.27-3.55-2.52-5.4-3.72,0,0,0,0-.01,0,0,0,0,0-.01,0-20.79-13.31-44.21-20.45-69.62-21.22h0s0,0,0,0c-2.09-.06-4.2-.1-6.28-.1-60.51,0-123.04,25.67-147.39,71.79-19.36,36.66,7.08,46.95,9.21,49.39,10.71,9.58-22.11,115.97-22.11,115.97-17.14,1.99-46.18,14.14-49.9,41.83-.05.36,1.2,5.8,1.78,8.14.03.12.05.25.09.37.17.67.34,1.34.51,2.01-6.38-4.61-13.25-7.06-19.97-7.06-7.65,0-14.71,3.28-19.36,8.99-5.36,6.59-7.18,15.69-5.13,25.63,4.87,23.56,45.04,67.51,73.31,74.3,2.36.57,4.54.85,6.48.85,4.65,0,8.08-1.63,10.19-4.85,3.69-5.64,2.53-14.91.75-21.23,62.89,59.56,167.3,42.74,167.3,42.74h.4c14.57,0,31.18-1.36,56.24-10.77,25.06-9.42,37.12-19.72,37.12-19.72Z"/>
      <path class="cls-24" d="m446.82,352.12c-3.75-10.59-8.09-20.74-13.3-30.09-16.25-29.18-33.79-44.62-40.58-49.9,6.18,7.53,12.94,17.05,19.49,28.81,5.21,9.35,9.55,19.49,13.3,30.09,12.85,36.31,25.52,97.08,21.45,145.54-6.58,78.45-34.55,113.34-56.91,128.79,0,0-12.06,10.31-37.12,19.72-25.06,9.42-56.63,10.77-56.63,10.77,0,0-111.41,10.81-174.3-48.74,1.78,6.31,2.94,15.59-.75,21.23-2.1,3.22-5.53,4.85-10.19,4.85-1.94,0-4.12-.29-6.48-.85-9.89-2.37-21.23-9.3-32.01-18.31,15.3,18.21,36.3,35.37,53.1,39.4,2.36.57,4.54.85,6.48.85,4.65,0,8.08-1.63,10.19-4.85,3.69-5.64,2.53-14.91.75-21.23,62.89,59.56,167.3,42.74,167.3,42.74h.4c14.57,0,31.18-1.36,56.24-10.77,25.06-9.42,37.12-19.72,37.12-19.72,22.36-15.46,50.33-50.34,56.92-128.79,4.07-48.46-1.61-103.23-14.46-139.54Z"/>
      <path class="cls-24" d="m463.28,391.07c-5.53-13.73-12.53-26.98-21.4-38.62-114.11,23.48-199.18,47.98-199.18,47.98-34.57-1.13-77.12-3.14-77.12-3.14,0,1.64-2.72,11.05-6.47,23.23-.34,1.44-.7,2.91-1.06,4.42-5.5,22.55-6.84,44.34-8.96,51.49-.96.16-1.96.35-2.99.57.11.03-18.89,10.03-18.89,10.03,10,12,36.93,26.55,118,38,93.41,9.49,176.77,2.95,220.1-10.01,1.05-7,1.93-14.4,2.58-22.23,2.82-33.57,1-70.16-4.62-101.71Z"/>
      <path class="cls-24" d="m383.09,268.66s35.5,47.1-39.24,74.24l93.76-24.07s-9.2-29.77-54.53-50.17Z"/>
      <path class="cls-13" d="m280.9,657.94c-7.97,0-16.98-.33-26.65-1.26-29.02-2.77-69.05-11.61-101.19-37.44.13,4.48-.54,9.31-3.07,13.17-1.99,3.04-5.95,6.66-13.53,6.66-2.26,0-4.75-.32-7.41-.96-30.02-7.21-71.1-52.27-76.29-77.38-2.31-11.15-.2-21.43,5.94-28.97,5.42-6.65,13.6-10.46,22.47-10.46,4.64,0,9.36,1.03,13.96,3.03-.44-2.23-.39-2.67-.34-3.02,4-29.8,33.55-42.08,50.76-44.9,2.12-7.15,8.46-28.93,13.96-51.49,12.6-51.65,9.02-59.12,8.47-59.89-.03-.03-.06-.05-.09-.08-.23-.16-.79-.5-1.25-.77-6.72-4.03-27.16-16.3-8.63-51.39,14.79-28.01,43.53-45.36,65.04-54.98,26.92-12.04,58.23-18.95,85.88-18.95h0c2.12,0,4.26.03,6.39.1,0,0,.01,0,.02,0,26.14.79,50.25,8.14,71.66,21.85.02.01.05.03.07.05,1.7,1.1,3.46,2.32,5.54,3.82,1.15.82,2.38,1.73,3.84,2.84,1.99,1.35,24.44,17.05,44.66,53.35,5.01,8.99,9.45,19.03,13.58,30.7,13.02,36.8,18.78,92.23,14.67,141.21-6.7,79.87-35.46,115.67-58.47,131.64-1.64,1.36-14.01,11.22-38.14,20.29-25.79,9.7-42.95,11.03-57.64,11.03h-.09c-2.29.35-15.32,2.2-34.11,2.2Zm-133.5-52.94c1,0,1.99.37,2.75,1.1,31.61,29.93,74.36,39.69,104.66,42.61,33.1,3.19,59-.87,59.26-.91.21-.03.42-.05.63-.05h.4c13.94,0,30.23-1.27,54.83-10.52,23.98-9.01,35.82-18.93,35.93-19.03.1-.09.21-.17.32-.25,21.62-14.94,48.75-48.9,55.2-125.84,4.02-47.94-1.56-102.05-14.24-137.87-3.98-11.24-8.24-20.88-13.02-29.47-19.79-35.53-41.29-50.05-42.2-50.65-.09-.06-.19-.13-.28-.2-1.38-1.05-2.57-1.93-3.7-2.73-2-1.44-3.66-2.59-5.25-3.62-.02-.01-.03-.02-.05-.03-20.16-12.9-42.89-19.82-67.55-20.57-2.05-.06-4.12-.09-6.17-.09-52.63,0-120.83,26.05-143.85,69.66-14.99,28.4-.51,37.08,5.68,40.79,1.23.74,2.08,1.25,2.75,1.94,2.54,2.38,4.72,7.46,2.22,25.85-1.4,10.31-4.15,23.93-8.16,40.49-6.8,28.07-15.02,55.31-15.1,55.58-.46,1.53-1.78,2.63-3.37,2.82-16.72,1.95-42.72,13.63-46.32,37.86.25,1.3,1.1,5.03,1.63,7.17l.06.28c.18.74.35,1.39.52,2.04.43,1.63-.21,3.36-1.6,4.32-1.39.96-3.24.93-4.61-.05-5.71-4.12-11.81-6.3-17.62-6.3-6.45,0-12.37,2.74-16.26,7.51-4.59,5.63-6.12,13.55-4.31,22.3,4.56,22.06,43.77,64.84,70.33,71.22,2.05.49,3.92.74,5.54.74,4.35,0,5.98-1.74,6.84-3.04,2.74-4.19,1.92-12.02.25-17.96-.49-1.73.24-3.58,1.78-4.51.64-.39,1.36-.58,2.07-.58Zm20.62-239.92s0,0,.01,0c0,0,0,0-.01,0Zm-.33-.34s.08.09.13.14c-.04-.05-.09-.09-.13-.14Z"/>
      <path class="cls-18" d="m443.34,332.66c-114.11,23.48-199.18,47.98-199.18,47.98-34.57-1.13-77.12-3.14-77.12-3.14,0,5.25-27.9,93.16-27.9,93.16,5.89,15.99,25.8,25.87,106.87,37.31,109.51,11.12,206.12-3.55,239.39-19.7,0,0,2.09-97.64-42.06-155.61Z"/>
      <path class="cls-17" d="m371.8,430.43c-25.39,9.21-138.57-10.59-138.57-10.59l-1.45,13.81,17.89,8.97c.81.4,1.32,1.22,1.34,2.12.08,2.66.73,8.28,4.58,10.52,11.25,6.54,81.45,11.34,118.67.64,37.03-10.64,55.46-38.54,50.8-46.69-3.64-6.36-30.54,12.99-53.26,21.23Z"/>
      <path class="cls-13" d="m322.89,515.88c-24.33,0-50.3-1.18-77.29-3.92-.05,0-.1-.01-.15-.02-40.5-5.72-65.93-11.01-82.46-17.17-15.62-5.81-23.87-12.61-27.6-22.72-.31-.83-.33-1.75-.06-2.59,10.45-32.94,27.19-86.96,27.71-92.06.03-1.05.47-2.06,1.24-2.79.79-.75,1.87-1.15,2.95-1.1.42.02,42.4,2,76.44,3.12,7.91-2.25,90.94-25.67,198.87-47.88,1.51-.31,3.06.27,3.99,1.49,23.32,30.61,33.73,72.01,38.36,101.34,5,31.65,4.54,55.77,4.52,56.78-.03,1.5-.9,2.86-2.25,3.51-24.1,11.7-85.66,24-164.26,24Zm-76.4-11.87c109.97,11.15,202.09-3.7,234.92-18.29-.07-15.25-2.27-97.35-39.76-148.62-111.42,23.03-195.55,47.15-196.39,47.39-.4.12-.82.16-1.24.15-28.58-.94-62.99-2.49-73.78-2.99-3.84,15.86-20.64,69.22-26.87,88.85,5.71,13.1,25,22.47,103.11,33.5Zm-83.45-126.57s0,.05,0,.07c0-.02,0-.05,0-.07Z"/>
      <g>
        <path class="cls-21" d="m160.38,367.23l2.54,18.36c.12.93.87,1.64,1.8,1.73l66.2,5.06s.03-.19.07-.54c1.3-11.03-6.82-20.95-17.88-22.01l-50.55-4.85c-1.28-.12-2.34.98-2.17,2.25Z"/>
        <path class="cls-13" d="m230.91,396.38c-.1,0-.2,0-.3-.01l-66.2-5.06c-2.88-.27-5.09-2.41-5.46-5.2l-2.53-18.33s0-.02,0-.03c-.24-1.82.36-3.63,1.63-4.95,1.28-1.32,3.06-1.98,4.89-1.8l50.55,4.85c6.47.62,12.28,3.75,16.36,8.8,4.04,5.01,5.86,11.28,5.11,17.65-.05.46-.1.72-.1.72-.33,1.94-2.01,3.36-3.95,3.36Zm-64.25-12.92l60.39,4.62c-.28-3.04-1.46-5.95-3.43-8.4-2.72-3.37-6.59-5.45-10.9-5.86l-48.03-4.61,1.97,14.26Zm.21,1.56v.03s0-.02,0-.03Z"/>
      </g>
      <path class="cls-21" d="m443.61,316.54l5.57,16.53c.04.93-.56,1.77-1.46,2.02l-216.8,57.29s-1.38-21.8,14.28-27.16l195.88-50.51c1.24-.35,2.48.55,2.54,1.83Z"/>
      <path class="cls-10" d="m371.44,332.66s6.2,5.84,2.68,19.62l75.05-19.22-5.57-16.53-72.16,16.12Z"/>
      <path class="cls-13" d="m230.91,396.38c-.83,0-1.65-.26-2.34-.75-.97-.7-1.58-1.8-1.65-2.99-.06-1.01-1.36-24.92,16.98-31.2.1-.03.2-.06.3-.09l195.88-50.51c1.69-.48,3.56-.14,5.05.93,1.3.94,2.15,2.33,2.41,3.88l5.44,16.14c.12.35.19.71.2,1.08.14,2.82-1.67,5.31-4.38,6.07l-216.85,57.31c-.34.09-.68.13-1.02.13Zm15.44-27.33c-8.31,2.94-10.63,12.22-11.25,18.08l209.43-55.34-4.29-12.74-193.89,50Zm195.8-50.49l-.08.02s.05-.01.08-.02Z"/>
      <path class="cls-13" d="m228.47,505.21h-.08c-1.9-.04-3.41-1.62-3.37-3.52l2.44-109.39c.04-1.88,1.58-3.37,3.44-3.37h.08c1.9.04,3.41,1.62,3.37,3.52l-2.44,109.39c-.04,1.88-1.58,3.37-3.44,3.37Z"/>
      <g>
        <g>
          <path class="cls-2" d="m234.66,439.62c-11.22,0-21.55-1.2-30.66-3.59-1.77-.46-2.82-2.27-2.36-4.04s2.27-2.83,4.04-2.36c11.66,3.06,31.78,5.6,61.4.32,1.8-.32,3.52.88,3.84,2.68s-.88,3.52-2.68,3.84c-11.79,2.1-23.08,3.15-33.58,3.15Z"/>
          <g>
            <circle class="cls-2" cx="198.45" cy="431.8" r="8.79"/>
            <path class="cls-22" d="m198.45,443.09s-.09,0-.14,0c-3.01-.04-5.83-1.24-7.94-3.4s-3.25-5-3.21-8.02c.04-3.01,1.24-5.83,3.4-7.94,2.16-2.11,5-3.23,8.02-3.21,3.01.04,5.83,1.24,7.94,3.4,2.11,2.16,3.25,5,3.21,8.02h0c-.07,6.18-5.12,11.15-11.29,11.15Zm0-17.58c-1.65,0-3.21.63-4.39,1.79-1.2,1.17-1.87,2.74-1.89,4.42-.02,1.68.62,3.27,1.79,4.47,1.17,1.2,2.74,1.88,4.42,1.89,3.44.08,6.32-2.75,6.36-6.21.02-1.68-.62-3.27-1.79-4.47-1.17-1.2-2.74-1.88-4.42-1.89-.03,0-.05,0-.08,0Zm8.79,6.39h0,0Z"/>
          </g>
          <g>
            <circle class="cls-2" cx="274.03" cy="433.06" r="8.79"/>
            <path class="cls-22" d="m274.03,444.35s-.09,0-.14,0c-3.01-.04-5.83-1.24-7.94-3.4s-3.25-5-3.21-8.02c.04-3.02,1.24-5.84,3.4-7.94,2.16-2.11,5.01-3.23,8.02-3.21,6.22.07,11.23,5.2,11.15,11.42h0c-.04,3.02-1.24,5.84-3.4,7.94-2.12,2.07-4.92,3.21-7.88,3.21Zm0-17.58c-1.65,0-3.21.63-4.39,1.79-1.2,1.17-1.87,2.75-1.89,4.42-.04,3.47,2.75,6.32,6.21,6.36,1.65.06,3.27-.62,4.47-1.79,1.2-1.17,1.87-2.74,1.89-4.42.04-3.47-2.75-6.32-6.21-6.36-.03,0-.05,0-.08,0Zm8.79,6.39h0,0Z"/>
          </g>
        </g>
        <g>
          <path class="cls-2" d="m230.61,405.82c-9.24,0-17.84-.88-25.59-2.64-1.78-.41-2.9-2.18-2.49-3.96.4-1.78,2.18-2.9,3.96-2.49,11.74,2.67,31.91,4.52,61.37-1.76,1.78-.38,3.54.76,3.93,2.54.38,1.79-.76,3.54-2.54,3.93-13.67,2.92-26.69,4.38-38.63,4.38Z"/>
          <g>
            <circle class="cls-2" cx="199.35" cy="399.18" r="8.79"/>
            <path class="cls-22" d="m199.35,410.47c-2.94,0-5.71-1.12-7.83-3.16-2.17-2.09-3.4-4.91-3.45-7.92-.06-3.01,1.07-5.87,3.16-8.04s4.9-3.4,7.92-3.45c3.03-.03,5.87,1.07,8.04,3.16,2.17,2.09,3.4,4.91,3.45,7.92s-1.07,5.87-3.16,8.04-4.9,3.4-7.92,3.45c-.07,0-.14,0-.21,0Zm.01-17.58s-.08,0-.12,0c-1.68.03-3.25.71-4.41,1.92-1.17,1.21-1.79,2.8-1.76,4.48s.71,3.25,1.92,4.41c1.21,1.17,2.77,1.77,4.48,1.76,1.68-.03,3.25-.71,4.41-1.92,1.17-1.21,1.79-2.8,1.76-4.48-.03-1.68-.71-3.25-1.92-4.41-1.18-1.14-2.72-1.76-4.36-1.76Z"/>
          </g>
          <g>
            <circle class="cls-2" cx="274.92" cy="397.79" r="8.79"/>
            <path class="cls-22" d="m274.92,409.08c-6.13,0-11.17-4.93-11.28-11.08-.06-3.01,1.07-5.87,3.16-8.04s4.9-3.4,7.92-3.45c.07,0,.14,0,.21,0,6.13,0,11.17,4.93,11.28,11.08.11,6.22-4.85,11.38-11.08,11.49-.07,0-.14,0-.21,0Zm0-17.58s-.08,0-.12,0c-1.68.03-3.25.71-4.41,1.92-1.17,1.21-1.79,2.8-1.76,4.48.06,3.47,2.95,6.23,6.4,6.17,3.47-.06,6.23-2.94,6.17-6.4h0c-.06-3.43-2.87-6.17-6.29-6.17Z"/>
          </g>
        </g>
        <g>
          <path class="cls-2" d="m233.14,473.52c-11.22,0-21.55-1.2-30.66-3.59-1.77-.46-2.82-2.27-2.36-4.04.46-1.77,2.27-2.83,4.04-2.36,11.66,3.06,31.78,5.6,61.4.32,1.8-.33,3.52.88,3.84,2.68.32,1.8-.88,3.52-2.68,3.84-11.79,2.1-23.08,3.15-33.58,3.15Z"/>
          <g>
            <circle class="cls-2" cx="196.93" cy="465.7" r="8.79"/>
            <path class="cls-22" d="m196.93,476.98s-.09,0-.14,0c-3.01-.04-5.83-1.24-7.94-3.4s-3.25-5-3.21-8.02c.04-3.01,1.24-5.83,3.4-7.94,2.16-2.11,4.98-3.25,8.02-3.21,6.22.08,11.23,5.2,11.15,11.42h0c-.07,6.18-5.12,11.15-11.29,11.15Zm0-17.58c-1.65,0-3.21.63-4.39,1.79-1.2,1.17-1.87,2.74-1.89,4.42-.02,1.68.62,3.27,1.79,4.47,1.17,1.2,2.74,1.88,4.42,1.89,3.47.08,6.32-2.75,6.36-6.21.04-3.47-2.75-6.32-6.21-6.36-.03,0-.05,0-.08,0Zm8.79,6.39h0,0Z"/>
          </g>
          <g>
            <circle class="cls-2" cx="272.51" cy="466.96" r="8.79"/>
            <path class="cls-22" d="m272.51,478.25s-.09,0-.14,0c-3.01-.04-5.83-1.24-7.94-3.4s-3.25-5-3.21-8.02c.04-3.01,1.24-5.83,3.4-7.94,2.12-2.07,4.92-3.21,7.88-3.21.05,0,.09,0,.14,0,3.01.04,5.83,1.24,7.94,3.4,2.11,2.16,3.25,5,3.21,8.02h0c-.07,6.18-5.12,11.15-11.29,11.15Zm0-17.58c-1.65,0-3.21.63-4.39,1.79-1.2,1.17-1.87,2.74-1.89,4.42-.02,1.68.62,3.27,1.79,4.47,1.17,1.2,2.74,1.88,4.42,1.89,3.48.03,6.32-2.75,6.36-6.21.02-1.68-.62-3.27-1.79-4.47-1.17-1.2-2.74-1.88-4.42-1.89-.03,0-.05,0-.08,0Zm8.79,6.39h0,0Z"/>
          </g>
        </g>
      </g>
      <path class="cls-13" d="m220.81,304.2c-7.09,5.32-4.95,11.89,2.97,12.88,7.93.99,8.54,1.51,15.85-3.96,7.92-5.94,8.91-15.85,0-14.86-8.91.99-14.86,2.97-18.82,5.94Z"/>
      <circle class="cls-13" cx="191.09" cy="308.17" r="8.91"/>
      <circle class="cls-13" cx="294.11" cy="283.41" r="8.91"/>
      <path class="cls-13" d="m175.17,365.36c-2.21,0-4-1.79-4-4s1.79-4,4-4c9.78,0,40.34-11.69,50.05-29.33.53-.96,1.42-1.66,2.48-1.94,1.06-.28,2.18-.11,3.12.46,9.83,6.04,20.68,8.97,33.17,8.97s25.15-3,37.12-6.63c.05-.02.1-.03.15-.05,1.85-.56,3.68-1.13,5.49-1.71,2.1-.67,4.35.49,5.03,2.59.67,2.1-.49,4.36-2.59,5.03h0s-.03,0-.04.01c-14.22,4.55-29.54,8.76-45.17,8.76-12.58,0-23.72-2.68-33.92-8.17-13.06,18.76-43.76,30.01-54.9,30.01Z"/>
      <path class="cls-4" d="m416.9,545.86c-29.43-28.49-91.24-21.47-111.25,29.4-11.5,29.24-11.53,47.28-11.53,47.28,0,0,66.83,7.92,99.15-26.74,31.43-33.7,23.64-49.94,23.64-49.94Z"/>
      <path class="cls-13" d="m307.34,577.8c-.54,0-1.09-.11-1.61-.34-2.02-.89-2.94-3.25-2.05-5.27,10.91-24.73,31.79-41.78,57.29-46.77,22.8-4.46,45.38,1.56,60.4,16.11,1.59,1.54,1.63,4.07.09,5.66-1.54,1.59-4.07,1.63-5.66.09-13.15-12.73-33.08-17.97-53.3-14.01-22.9,4.48-41.67,19.84-51.51,42.15-.66,1.5-2.13,2.39-3.66,2.39Z"/>
      <path class="cls-13" d="m153.98,596.94c-3.39-7.74-29.64-61.98-46.31-74.8-2.23-1.72-4.56-3.23-6.94-4.52-10.94-13.72-25.44-21.58-37.12-20.06-5.34.7-12.59,3.63-16.87,13.63-1.03,2.16-12.77,28.05-1.12,65.69,4.44,14.36,10.84,17,17.03,19.55,7.01,2.89,14.96,6.16,24.98,30.61.05.12.11.25.17.37,4.01,7.51,14.75,19.64,29.75,19.64,2.65,0,5.43-.38,8.32-1.23,11.9-3.48,23.55-7.67,28.2-14.71,7.06-10.71,3.03-27.03-.09-34.17Z"/>
      <g>
        <path class="cls-20" d="m125.13,578.47c-2.31-3.91-11.38-13.72-13.59-27.32-6.4-39.32-49.3-66.19-61.15-38.31,0,0-12.52,25.44-.95,62.85,8.76,28.31,22.73,3.1,41.9,49.82,0,0,12.33,23.36,33.42,16.46,28.09-9.19,19.03-31.94.37-63.5Z"/>
        <path class="cls-13" d="m117.15,647.23c-14.68,0-25.32-12.2-29.35-19.85-.06-.11-.11-.23-.16-.35-10.03-24.45-17.97-27.72-24.98-30.61-6.19-2.55-12.59-5.19-17.03-19.55-11.65-37.64.09-63.53,1.12-65.69,4.25-9.91,12.62-14.88,22.97-13.63,18.3,2.21,41.05,24.01,45.77,52.95,1.61,9.86,7.31,17.75,10.71,22.46,1.01,1.4,1.81,2.5,2.38,3.46h0c13.87,23.46,21.48,40.62,16.57,53.65-2.73,7.24-8.99,12.37-19.14,15.69-3.09,1.01-6.04,1.46-8.85,1.46Zm-22.2-23.44c1.09,1.98,11.58,19.94,28.56,14.38,7.7-2.52,12.33-6.09,14.14-10.91,3.77-10-3.66-25.92-15.97-46.76-.38-.65-1.12-1.67-1.97-2.85-3.82-5.29-10.21-14.13-12.13-25.87-4.07-25.01-23.73-44.47-38.83-46.29-6.89-.84-11.83,2.17-14.69,8.9-.03.07-.06.14-.09.2-.11.23-11.63,24.62-.71,59.91,3.33,10.76,6.95,12.25,12.44,14.52,8.02,3.3,17.99,7.42,29.25,34.77Z"/>
      </g>
      <path class="cls-13" d="m117.63,571.65c-1.03-1.57-2.35-17.73-5.31-17.64-19.4,18.41-53.53,32-55.71,31.14-2.37.41-2.79,3.93-.55,4.86,0,0,10.88,4.06,14.2,6.6,1.21.92,31.32-7.28,47.37-24.96Z"/>
      <path class="cls-13" d="m143.73,611.46l-7.14-12.37c-.47-.81-1.37-1.32-2.33-1.28l-11.03.36c-.41.01-.81.12-1.17.32l-28.97,15.79c-1.24.67-1.68,2.2-.98,3.4l9.62,16.67c3.73,6.46,10.6,10.13,17.61,10.13,3.22,0,6.46-.77,9.44-2.4l7.61-4.15c9.48-5.17,12.77-17.05,7.33-26.48Z"/>
      <path class="cls-5" d="m390.68,264.49c-.62,0-1.17.02-1.61.06-1.54.13-2.9,1.04-3.6,2.42-.7,1.38-.63,3.02.17,4.33,1.71,2.79,5.26,6.57,9.51,10.12l1.12.95c31.99,27.28,56.41,33.01,71.26,33.01,5.47,0,10.78-.76,15.78-2.26,23.11-6.94,37.4-21.45,43.06-32.71,2.46-4.91,2.83-8.16,2.83-9.67,0-2.28-1.73-4.2-4-4.43-3.15-.32-10.8-.47-23.39-.47-6.54,0-13.99.04-21.9.08-8.99.05-18.59.09-28.17.09-17.67,0-42.96-.15-58.57-1.41-.86-.07-1.69-.1-2.48-.1h0Z"/>
      <path class="cls-1" d="m529.19,270.73c-.32-.03-57.64,54.91-137.54,2.04-16.35-10.82-6.17,2.23,4.61,10.26,52.45,45.98,101.91,41.84,130.1-1.96,3.11-7.33,9.18-8.21,2.83-10.34Z"/>
      <path class="cls-13" d="m319.01,582c-3.8-23.32-32.65-79.14-65.42-61.71-26.07,17.6-21.83,51.98-17.9,77.82,2.97,27.27-27.77,73.75,45.55,65.22,13.58-1.58,24.99-8.47,30.63-20.65,7.82-20.49,12.06-35.94,7.14-60.69Z"/>
      <path class="cls-13" d="m467.52,319.37c-15.52,0-40.93-5.9-73.85-33.96l-1.11-.94c-4.61-3.84-8.38-7.88-10.34-11.08-1.52-2.48-1.64-5.64-.33-8.23,1.34-2.63,3.89-4.35,6.83-4.6,1.31-.11,3.04-.09,4.75.04,15.46,1.25,40.65,1.4,58.25,1.4,9.6,0,19.03-.05,28.15-.09,7.92-.04,15.37-.08,21.92-.08,12.9,0,20.46.16,23.79.49,4.33.44,7.6,4.05,7.6,8.41,0,2.27-.56,6.1-3.25,11.46-6.04,12.01-21.16,27.45-45.49,34.75-5.38,1.61-11.07,2.43-16.93,2.43Zm-76.84-50.88c-.61,0-1.03.02-1.28.05-.16.01-.29.1-.37.24-.07.14-.06.3.02.44,1.47,2.4,4.79,5.9,8.66,9.13l1.14.97c31.07,26.49,54.49,32.05,68.67,32.06,5.08,0,10-.7,14.63-2.09,21.89-6.57,35.35-20.15,40.64-30.68,2.17-4.32,2.4-6.94,2.4-7.87,0-.23-.17-.42-.4-.45-2.97-.3-10.71-.45-22.99-.45-6.54,0-13.97.04-21.88.08-9.13.05-18.57.09-28.19.09-17.74,0-43.14-.15-58.89-1.42-.74-.06-1.47-.09-2.16-.09Z"/>
      <g>
        <path class="cls-18" d="m228.05,92.9c-34.72,5.95-79.03,19.36-77.84,26.33,8.57,50,31.35,88.19,39.92,138.19,43.13,6.27,82.41-7.05,127.08-24.77-8.57-50,1.57-90.85-7-140.85-1.19-6.97-47.45-4.86-82.16,1.1Z"/>
        <path class="cls-17" d="m310.21,91.81c-.77-4.51-20.46-5.22-43.66-3.53,4.75.7,7.68,1.85,7.97,3.53,8.57,50,6.92,90.2,15.5,140.2-30.57,12.12-67.12,25.8-95.61,28.94,41.46,4.82,79.62-8.2,122.8-25.32-8.57-50,1.57-93.81-7-143.81Z"/>
        <path class="cls-8" d="m228.05,95.75c-34.72,5.95-79.03,19.36-77.84,26.33,8.57,50,31.35,79.92,39.92,129.92,43.13,6.27,87.14-1.27,125.72-21.55-8.57-50,2.94-85.8-5.63-135.8-1.19-6.97-47.45-4.86-82.16,1.1Z"/>
        <path class="cls-8" d="m228.05,95.75c-34.72,5.95-79.03,19.36-77.84,26.33,8.57,50,31.35,79.92,39.92,129.92,43.13,6.27,87.14-1.27,125.72-21.55-8.57-50,2.94-85.8-5.63-135.8-1.19-6.97-47.45-4.86-82.16,1.1Z"/>
        <path class="cls-2" d="m181.99,111.3c-9.14,2.85-15.39,5.29-19.49,7.21l49.42,105.68,26.24-4.5,11.91-122.8c-6.7.79-13.34,1.74-19.53,2.8-15.71,2.69-33.87,7.03-48.56,11.61Z"/>
        <g>
          <path class="cls-8" d="m309.71,165.01c.38-21.88.77-44.5-3.3-68.8-2.13-1.02-10-2.43-28.04-1.75-15.38.58-33.94,2.54-49.66,5.23-15.72,2.69-33.87,7.03-48.56,11.61-17.24,5.37-24.19,9.32-25.85,10.99,4.26,24.31,12.07,46.29,19.63,67.55,3.67,10.33,7.4,20.84,10.77,31.72,41.45-3.16,83.43-11.7,124.91-25.62-.25-10.55-.08-20.82.09-30.94Z"/>
          <path class="cls-8" d="m192.09,282.77c4.33,6.01,15.17,6.38,23.49,5.64,33.8-3.03,59.18-17.16,71.3-25.3,10.41-7,17.37-13.62,21.51-18.58-38.73,11.45-77.9,18.21-116.65,20.27-1.78,5.45-3.2,13.06.34,17.98Z"/>
          <path class="cls-21" d="m313.21,235.69c-.03-.12-.06-.25-.08-.37-2.29-13.66-3.2-26.71-3.51-39.37-41.48,13.92-83.46,22.46-124.91,25.62,3.59,11.6,6.78,23.62,9.06,36.33.14.78.04,1.58-.27,2.3-.51,1.16-1.15,2.75-1.75,4.59,38.75-2.07,77.92-8.83,116.65-20.27,3.31-3.97,4.82-6.88,4.82-8.05v-.77Z"/>
        </g>
        <path class="cls-10" d="m192.13,252.01v8.27c34.65,3.38,91.12-10.39,127.08-24.65-2.35-13.72-3.29-27.98-3.6-41.02-9.16,3.15-18.34,6.04-27.54,8.66,1.03,8.98,2.3,18.18,3.94,27.74-30.99,16.71-99.88,21-99.88,21Z"/>
        <path class="cls-8" d="m228.05,95.75c-34.72,5.95-79.03,19.36-77.84,26.33,8.57,50,31.35,88.19,39.92,138.19,43.13,6.27,82.41-7.05,127.08-24.77-8.57-50,1.57-90.85-7-140.85-1.19-6.97-47.45-4.86-82.16,1.1Z"/>
        <path class="cls-13" d="m319.21,234.62c-94.68,27.36-127.34,23.87-127.34,23.87-6.07,13.87-10.05,37.14,26.06,33.9,60.11-5.4,101.27-45.21,101.27-55.92,0-.96,0-1.87,0-1.84Z"/>
        <path class="cls-13" d="m209.57,296.69c-11.5,0-19.55-3.1-23.98-9.24-6.55-9.08-3.01-21.83.08-29.31-4.33-23.52-11.93-44.92-19.28-65.61-7.76-21.84-15.78-44.42-20.13-69.76-.82-4.79,4.32-8.1,8.89-10.45,4.59-2.36,11.07-4.91,19.27-7.58,15.65-5.09,35.44-9.92,52.95-12.92,17.51-3,37.78-5.04,54.23-5.45,8.62-.22,15.58.03,20.69.73,5.09.7,11.04,2.11,11.86,6.89,4.35,25.37,3.95,48.65,3.56,71.17-.37,21.58-.76,43.89,3.13,67.8.13.29.23.6.29.93.05.29.08.58.07.87v.67s0,.07,0,.1v.95c0,14.64-45.41,54.57-104.92,59.91-2.36.21-4.6.32-6.72.32Zm-55.27-174.4c4.26,24.31,12.07,46.29,19.63,67.55,7.58,21.34,15.43,43.42,19.83,68.05.14.78.04,1.58-.27,2.3-2,4.59-6.15,15.99-1.4,22.57,4.33,6.01,15.17,6.38,23.49,5.64,33.8-3.03,59.18-17.16,71.3-25.3,18.75-12.6,26.33-24,26.33-26.64v-.77c-.03-.12-.06-.25-.08-.37-4.19-25.03-3.8-48.05-3.41-70.31.38-21.88.77-44.5-3.3-68.8-2.13-1.02-10-2.43-28.04-1.75-15.38.58-33.94,2.54-49.66,5.23-15.72,2.69-33.87,7.03-48.56,11.61-17.24,5.37-24.19,9.32-25.85,10.99Z"/>
        <path class="cls-23" d="m274.4,59.29c28.95,9.43,19.34,51.71-11.07,51.68,27.54,23.9-16.85,52.22-41.53,38.11-.99,4.33.57,48.19,8.22,67.66,0,0-.91,1.5-1.9,1.73-.87.2-3.17-.39-3.17-.39-10.38-15.8-41.14-76.08-28.91-139.67,23.27-120.94,146.44-69.67,78.36-19.12Z"/>
        <path class="cls-12" d="m267.87,55.29c28.95,9.43,19.34,51.71-11.07,51.68,27.54,23.9-16.85,52.22-41.53,38.11-.99,4.33.57,48.19,8.22,67.66,0,0-.91,1.5-1.9,1.73-.87.2-3.17-.39-3.17-.39-10.38-15.8-41.14-76.08-28.91-139.67,23.27-120.94,146.44-69.67,78.36-19.12Z"/>
        <g>
          <path class="cls-22" d="m247.99,220.96c2.35,13.72-6.61,25.76-18.96,26.81-11.32.96-21.46-7.82-23.47-19.54-2.01-11.72,4.63-23.37,15.62-26.24,12-3.13,24.46,5.24,26.81,18.96Z"/>
          <path class="cls-12" d="m221.7,205.04c2.46-.61,4.98-.68,7.49-.19,1.22.24,2.44.61,3.6,1.11,1.17.5,2.3,1.12,3.36,1.86,1.07.74,2.08,1.6,3,2.56.93.97,1.78,2.04,2.51,3.19,1.53,2.4,2.57,5.09,3.06,7.96.49,2.88.41,5.75-.23,8.53-.31,1.33-.75,2.62-1.3,3.84-.55,1.21-1.21,2.35-1.98,3.41-.76,1.05-1.62,2.02-2.55,2.87-.94.86-1.96,1.61-3.03,2.24-2.2,1.3-4.61,2.07-7.13,2.31-2.48.24-4.93-.05-7.28-.84-1.12-.38-2.21-.87-3.25-1.46-1.02-.58-2-1.27-2.91-2.04-.9-.77-1.75-1.62-2.51-2.54-.77-.93-1.46-1.93-2.06-2.98-1.24-2.17-2.08-4.54-2.51-7.05-.43-2.51-.42-5.02.02-7.48.21-1.19.53-2.36.95-3.49.41-1.12.92-2.21,1.52-3.23.6-1.03,1.3-2,2.06-2.89.78-.9,1.65-1.73,2.58-2.46,1.96-1.53,4.17-2.62,6.58-3.22m-.22-1.27c-10.19,2.58-16.38,13.35-14.52,24.22,1.86,10.87,11.29,18.96,21.76,18,11.34-1.04,19.51-12.14,17.36-24.71-2.16-12.57-13.55-20.32-24.59-17.52h0Z"/>
          <path class="cls-12" d="m209.82,227.51c1.13,6.57,5.49,11.83,11.04,13.99l-10.95-20.99c-.45,2.23-.5,4.6-.09,7Zm26.54-5.5c-.39-2.27-1.44-3.69-2.31-4.78-1.13-1.33-2.17-2.43-2.43-3.93-.29-1.67.64-3.48,2.35-3.86.08-.02.15-.02.23-.04-3.58-2.28-7.87-3.13-12.11-2.11-5.48,1.32-9.6,5.46-11.45,10.61.35-.06.67-.12.95-.18,1.55-.32,3.94-1.05,3.94-1.05.81-.23,1.14,1.11.34,1.39,0,0-.8.28-1.7.51l8.8,17.64,1.54-11.98-3.76-6.99c-.86.12-1.67.17-1.67.17-.85.12-.99-1.32-.15-1.45,0,0,2.63-.32,4.2-.65,1.69-.35,4.31-1.14,4.31-1.14.89-.24,1.24,1.15.36,1.45,0,0-.88.3-1.86.55l9.4,18.27.78-6.2c.36-2.74.51-4.67.24-6.24Zm-10.7,4.37l-2.21,15.87c1.51.31,3.07.4,4.67.23,1.92-.2,3.73-.76,5.38-1.6-.06-.07-.11-.15-.16-.23l-7.68-14.27Zm12.95-12.98c.18.58.33,1.2.45,1.89.32,1.89.34,4.07-.23,6.89l-2.62,16.95c4.72-3.8,7.34-10.29,6.16-17.2-.56-3.26-1.89-6.16-3.76-8.53Z"/>
        </g>
        <path class="cls-19" d="m206.64,261.97c-5.44.32-8.88.27-10.61.2-.84-.04-1.6.45-1.92,1.23-5.77,13.59-9.02,29.15,38.36,24.28,1.36-.14-34.27-7.15-24.9-24.2.38-.7-.13-1.55-.93-1.5Z"/>
      </g>
      <path class="cls-13" d="m106.31,648.59c-10,0-18.42-6.79-22.1-13.36l-7.91-14.11c-.52-.92-.65-2.02-.36-3.04.29-1.02.97-1.89,1.89-2.41l37.52-21.04c.55-.31,1.13-.47,1.72-.5.51-.14,1.04-.23,1.57-.25l11.03-.37c2.45-.1,4.73,1.18,5.95,3.35l7.14,12.73h0c6.4,11.42,2.92,23.07-8.87,29.68-.18.1-.36.18-.55.26-5.62,2.11-14.71,5.6-16.69,6.58-3.54,1.74-7.02,2.49-10.33,2.49Zm-21.08-27.9l5.96,10.62c3.13,5.57,11.84,12.57,21.93,7.61,2.83-1.39,14.7-5.87,17.12-6.78,7.69-4.43,9.71-11.21,5.54-18.64l-6.71-11.97-9.81.33c-.37.19-.75.32-1.14.39l-32.89,18.44Zm44.75-19.19h-.03s.02,0,.03,0Z"/>
      <g>
        <path class="cls-20" d="m92.13,635.28c5.57,9.66,16.78,13.84,25.04,9.33l7.61-4.15c8.26-4.5,10.44-15.98,4.87-25.64l-8.36-14.5-37.52,20.45,8.36,14.5Z"/>
        <path class="cls-13" d="m109.98,650.41c-8.12,0-16.53-4.84-21.31-13.13h0l-8.36-14.5c-.54-.93-.68-2.04-.39-3.08.29-1.04.99-1.91,1.94-2.43l37.52-20.45c1.91-1.04,4.29-.37,5.38,1.51l8.36,14.5c3.51,6.09,4.53,13.14,2.78,19.35-1.45,5.17-4.72,9.36-9.2,11.8l-7.61,4.15c-2.84,1.55-5.95,2.28-9.11,2.28Zm-14.38-17.12c4.49,7.78,13.31,11.29,19.66,7.82l7.61-4.15c3.3-1.8,4.72-4.77,5.33-6.94,1.17-4.14.43-8.95-2.01-13.19l-6.41-11.12-30.49,16.62,6.31,10.95h0Z"/>
      </g>
      <g>
        <path class="cls-20" d="m241.69,513.86s-19.7,19.51-18.36,55.44c.94,25.21,15.19,7.23,11.49,54.42-1.7,21.66,11.48,34.38,41.13,34.9,9.28.16,15.45-22.74,20.25-62.16.51-4.19,2.12-12.59,0-30.5-4.28-36.25-29.2-72.42-54.51-52.1Z"/>
        <path class="cls-13" d="m276.07,662.63c-.06,0-.13,0-.19,0-17.26-.3-29.81-4.64-37.3-12.88-5.99-6.59-8.6-15.45-7.74-26.33,2.07-26.44-1.5-30.78-4.96-34.97-2.86-3.47-6.11-7.41-6.54-18.99-1.39-37.26,18.69-57.58,19.54-58.43.1-.1.2-.19.31-.28,8.56-6.87,17.89-8.54,26.99-4.82,18.6,7.61,31.18,35.72,34,59.56,1.97,16.69.8,25.46.17,30.17-.06.47-.12.9-.17,1.29-5.74,47.21-12.51,65.68-24.09,65.68Zm-31.69-145.8c-1.63,1.73-18.25,20.22-17.06,52.32.33,8.88,2.27,11.22,4.72,14.2,5.32,6.46,8.92,13.16,6.76,40.69-.67,8.59,1.24,15.43,5.69,20.32,5.95,6.55,16.56,10,31.52,10.27h.02c1.72,0,4.81-3.51,7.89-13.42,3.09-9.94,5.8-24.73,8.29-45.22.05-.42.11-.88.18-1.38.58-4.36,1.67-12.48-.18-28.17-2.92-24.68-15.42-47.51-29.08-53.1-6.27-2.56-12.58-1.39-18.76,3.5Z"/>
      </g>
      <path class="cls-13" d="m293.82,579.96c-.66-.48-1.51-.62-2.29-.38-27.68,8.73-66.09-3.38-66.48-3.5-.98-.31-2.06-.01-2.73.77-.67.78-.81,1.89-.35,2.82l6.27,12.6c.27.54.72.97,1.27,1.21.92.4,16.46,7.03,36.4,7.03,8.55,0,17.91-1.22,27.27-4.67,1.01-.37,1.68-1.33,1.68-2.41v-11.4c0-.82-.39-1.59-1.05-2.07Z"/>
      <path class="cls-13" d="m295.97,617.06c-.09-.87-.61-1.64-1.38-2.03s-1.7-.38-2.46.06l-10.16,5.89-39.35-2.25h0c-.68-.04-1.35.19-1.85.65-.51.45-.82,1.09-.85,1.77l-.75,13.44c-.72,12.86,8.37,23.37,21.17,24.09l10.26.57c.07,0,.13,0,.2,0,6.55-.14,11.99-2.6,16.16-7.29,11.52-12.99,9.14-33.8,9.03-34.89Z"/>
      <path class="cls-13" d="m298.49,616.63c-.26-1.1-1.22-1.9-2.36-1.97l-56.21-3.13c-.5-.03-1,.09-1.43.34l-11.95,6.92c-.98.57-1.47,1.72-1.21,2.82.26,1.1,1.22,1.9,2.36,1.97l56.21,3.13c.5.03,1-.09,1.43-.34l11.95-6.92c.98-.57,1.47-1.72,1.21-2.82Z"/>
      <g>
        <path class="cls-20" d="m249.64,659.92l11.39.64c25.51,1.42,24.47-35.99,24.47-35.99l-56.18-3.13s-2.08,37.24,20.32,38.49Z"/>
        <path class="cls-13" d="m262.46,664.6c-.54,0-1.09-.02-1.64-.05l-11.39-.63h0c-26.09-1.45-24.18-41.02-24.09-42.71.12-2.21,2.01-3.88,4.22-3.77l56.18,3.13c2.08.12,3.72,1.8,3.78,3.88.03.92.5,22.68-10.91,33.77-4.35,4.23-9.78,6.38-16.14,6.38Zm-12.59-8.67l11.39.63c4.81.27,8.65-1.06,11.75-4.06,6.5-6.31,8.04-18.16,8.4-24.16l-48.1-2.68c.22,8.88,2.28,29.47,16.56,30.27h0Z"/>
      </g>
      <g>
        <g>
          <path class="cls-13" d="m228.07,331.27c-1.13-1.31-3.31-1.63-4.79-.8-1.49.83-1.71,2.52-.58,3.83.55.64,1.09,1.3,1.61,1.97-2.75,1.55-5.5,3.1-8.25,4.65-.6.33-.68,1.01-.22,1.52.49.55.92,1.14,1.38,1.72l-41.04,23.1-7.53,4.24-7.07-12.57c-.44-.78-1.43-1.06-2.21-.62l-1.81,1.02-1.99-3.53,2.93-1.65c1.1-.62,1.49-2.02.87-3.12s-2.02-1.49-3.12-.87l-9.49,5.34c-1.1.62-1.49,2.02-.87,3.12.62,1.1,2.02,1.49,3.12.87l2.93-1.65,1.99,3.53-1.94,1.09c-.78.44-1.06,1.43-.62,2.21l7.07,12.57-9.68,5.45-7.07-12.57c-.44-.78-1.43-1.06-2.21-.62l-1.81,1.02-1.99-3.53,2.93-1.65c1.1-.62,1.49-2.02.87-3.12-.62-1.1-2.02-1.49-3.12-.87l-9.49,5.34c-1.1.62-1.49,2.02-.87,3.12.62,1.1,2.02,1.49,3.12.87l2.93-1.65,1.99,3.53-1.94,1.09c-.78.44-1.06,1.43-.62,2.21l7.07,12.57-9.68,5.45-7.07-12.57c-.44-.78-1.43-1.06-2.21-.62l-1.81,1.02-1.99-3.53,2.93-1.65c1.1-.62,1.49-2.02.87-3.12-.62-1.1-2.02-1.49-3.12-.87l-9.49,5.34c-1.1.62-1.49,2.02-.87,3.12s2.02,1.49,3.12.87l2.93-1.65,1.99,3.53-1.93,1.09c-.78.44-1.06,1.43-.62,2.21l7.07,12.57-7.53,4.24c-.18.1-.35.22-.53.32,0,0,0-.02-.01-.02-.33-.09-5.23,3.36-14.52,6.56-12.41,4.27-32.66,8.09-60.32,2.46-8.45-7.5-16.61-10.71-22.01-7.67-9.68,5.45-6.81,28.9,6.4,52.38,13.22,23.48,31.78,38.1,41.45,32.66,5.5-3.1,6.94-12.02,4.74-23.45,4.16-11.5,11.67-27.07,24.39-38.13,1.81-1.58,3.75-3.04,5.78-4.4-.62,3.55-.62,7.22.09,10.83.59,3.01,1.66,5.98,3.24,8.8,8.01,14.23,26.1,19.3,40.34,11.29l7.53-4.24,2.53,4.5c.44.78,1.43,1.06,2.21.62l7.39-4.16c.78-.44,1.06-1.43.62-2.21l-2.53-4.5,9.68-5.45,2.53,4.5c.44.78,1.43,1.06,2.21.62l7.39-4.16c.78-.44,1.06-1.43.62-2.21l-2.53-4.5,9.68-5.45,2.53,4.5c.44.78,1.43,1.06,2.21.62l7.39-4.16c.78-.44,1.06-1.43.62-2.21l-2.53-4.5,7.53-4.24c14.23-8.01,19.3-26.1,11.29-40.34-1.59-2.82-3.57-5.27-5.84-7.34-2.25-2.06-4.79-3.72-7.51-4.98l20.06-11.29c.21.59.46,1.17.65,1.78.2.66.82.93,1.42.6,2.77-1.56,5.53-3.11,8.3-4.67.33.89.65,1.79.95,2.69.53,1.64,2.09,2.32,3.57,1.49,1.48-.84,2.34-2.87,1.8-4.51-2.5-7.73-6.52-14.88-11.84-21.03Zm-29.22,46.57c2.8,1.5,5.22,3.78,6.89,6.74,4.67,8.3,1.72,18.86-6.58,23.53l-7.53,4.24-16.9-30.03-10.22,5.75,16.9,30.03-9.68,5.45-16.9-30.03-10.22,5.75,16.9,30.03-9.68,5.45-16.9-30.03-10.22,5.75,16.9,30.03-7.53,4.24c-8.3,4.67-18.86,1.72-23.53-6.58-1.67-2.97-2.36-6.22-2.19-9.39.31-5.7,3.43-11.14,8.77-14.14l7.53-4.24,1.08-.61,1.08-.61,55.39-31.17c5.34-3,11.6-2.85,16.64-.16Z"/>
          <path class="cls-13" d="m56.97,499.68c-5.01,0-11.63-1.92-19.75-8.32-8.63-6.8-17.18-17.29-24.07-29.54-13.84-24.59-19.44-54.23-3.35-63.28,4.73-2.66,14.73-5.12,29.54,7.2,24.82,4.68,43.07,1.22,54.1-2.58,6.1-2.1,10.06-4.3,11.97-5.35.51-.28,1.08-.6,1.71-.88.03-.01.05-.03.08-.04l.55-.31-3.15-5.59c-.31-.56-.57-1.14-.77-1.74-1.93-.87-3.6-2.34-4.72-4.32-1.35-2.4-1.68-5.17-.94-7.82.74-2.65,2.47-4.85,4.86-6.2l9.5-5.34c1.89-1.07,4.02-1.5,6.14-1.27.88-1.87,2.33-3.5,4.26-4.59l9.49-5.34c1.94-1.09,4.08-1.48,6.13-1.26.9-1.93,2.38-3.53,4.27-4.59l9.5-5.34c4.94-2.79,11.23-1.03,14.02,3.92,1.15,2.04,1.52,4.31,1.22,6.46.37.45.7.93.99,1.44l3.15,5.6,35.96-20.24s.01-.07.02-.11c.45-2.69,2.1-5,4.52-6.34l1.81-1.02c-.02-.71.02-1.42.15-2.13.54-3.06,2.45-5.7,5.23-7.26,4.83-2.7,11.17-1.61,14.76,2.55h0c6.04,7,10.55,15,13.4,23.8,1.7,5.22-.66,11.22-5.49,13.94-2.79,1.57-6.05,1.82-8.93.69-.77-.3-1.5-.7-2.17-1.17l-1.73.97c-2.33,1.3-5.01,1.52-7.44.65l-3.86,2.17c2.16,2.26,4.03,4.78,5.57,7.51,4.92,8.75,6.14,18.9,3.43,28.58-2.71,9.69-9.02,17.73-17.76,22.65l-.92.52c.33,1.52.29,3.1-.14,4.63-.69,2.48-2.31,4.54-4.56,5.8l-7.38,4.15c-2.24,1.26-4.84,1.57-7.31.88-.17-.05-.35-.1-.52-.16-.04.17-.08.35-.13.52-.69,2.47-2.31,4.53-4.55,5.79l-7.39,4.16c-2.48,1.39-5.32,1.57-7.83.71-.04.18-.08.35-.13.53-.69,2.48-2.31,4.53-4.55,5.79l-7.39,4.16c-3.76,2.12-8.36,1.42-11.34-1.41l-.93.52c-18.08,10.17-41.06,3.74-51.23-14.33-1.24-2.2-2.25-4.52-3.02-6.91-7.29,8.49-12.17,18.56-15.26,26.64,3.13,19.54-4.26,26.96-9.07,29.67-1.91,1.07-4.76,2.15-8.52,2.15Zm-38.66-87.32c-.31,0-.54.05-.68.12-2.71,1.53-3.68,18.16,9.45,41.49,5.81,10.32,13.11,19.36,20.03,24.82,6.52,5.14,10.01,5.08,10.53,4.79.89-.5,2.73-4.97.81-14.96-.27-1.42-.16-2.88.33-4.23,4.39-12.15,12.58-29.2,26.67-41.45.58-.5,1.17-1,1.79-1.49-13.13,2.83-31.01,4.07-53.12-.42-1.38-.28-2.66-.92-3.71-1.85-6.16-5.46-10.4-6.81-12.1-6.81Zm130.78,31.01c.35.06.69.15,1.03.26.02-.1.05-.19.07-.29.07-.25.15-.49.24-.72-.25-.04-.5-.1-.74-.17-.1-.03-.19-.05-.28-.08-.02.1-.05.19-.07.29-.07.25-.15.49-.24.72Zm-27.46-22.1l-.56.31c-2.77,1.56-4.53,4.4-4.7,7.61-.1,1.76.31,3.5,1.17,5.03,1.21,2.15,3.2,3.71,5.59,4.38,2.39.67,4.89.37,7.05-.84l.56-.31-9.1-16.17Zm47.35,10.9c.35.06.69.15,1.03.26.02-.1.05-.19.07-.29.07-.25.15-.49.24-.72-.25-.04-.5-.1-.74-.17-.1-.03-.19-.05-.28-.08-.08.34-.19.68-.31,1.01Zm26.69-9.33s0,0-.01,0h.01Zm-6.8-1.86c.35.06.69.15,1.03.26.08-.34.19-.68.31-1.01-.35-.06-.69-.15-1.03-.26-.08.34-.19.68-.31,1.01Zm-88.42-3.34c.13.07.25.15.38.23.65.42,1.22.92,1.7,1.49.5-1.11,1.07-2.19,1.72-3.21-1.17.49-2.44.99-3.8,1.49Zm85.12-32.35l9.1,16.17.56-.31c4.46-2.51,6.04-8.18,3.53-12.63-.86-1.53-2.14-2.78-3.69-3.61h0c-2.83-1.51-6.17-1.48-8.94.08l-.56.31Zm-69.48,6.53h0s0,0,0,0Zm75.41-24.03c1.3.04,2.61.19,3.9.44-.14-.55-.23-1.11-.25-1.69-.01-.27,0-.54,0-.8l-3.66,2.06Zm33.14-20.73c.46.08.91.21,1.35.37.1.04.2.08.3.12l2.37-1.33c-.44-.83-.9-1.65-1.39-2.45l-2.12,1.19c-.02.24-.06.49-.11.73-.09.47-.23.93-.4,1.38Z"/>
        </g>
        <g>
          <path class="cls-6" d="m41.46,458.47c4.15,6.67,7.94,11.64,11.11,15.28,6-9.81,21.1-34.05,26.14-38.1l-37.25,22.82Z"/>
          <path class="cls-7" d="m96.04,410.73c-14.27,4.91-38.9,9.24-73.27-.73-.91-.27-1.78.54-1.55,1.47,1.34,5.56,5.83,21.69,16.55,40.75,1.26,2.23,2.49,4.31,3.7,6.25l37.25-22.82c-5.04,4.04-20.14,28.29-26.14,38.1,3.45,3.96,6.14,6.33,7.73,7.59.71.56,1.76.19,1.97-.7,1.67-7.33,9.02-34.78,28.43-51.65-.27-6.49,1.61-12.93,5.34-18.26Z"/>
          <path class="cls-6" d="m110.56,404.17c-.33-.09-5.23,3.36-14.52,6.56-3.72,5.33-5.6,11.77-5.34,18.26,4.16-3.61,8.86-6.73,14.19-9.07,1.24-2.45,3.07-4.62,5.42-6.28.38-4,.78-9.32.25-9.46Z"/>
          <path class="cls-6" d="m176.17,367.25l-55.39,31.17-2.15,1.21,6.05,10.75,2.15-1.21,55.39-31.17c5.34-3,11.6-2.85,16.64-.16l11.81-6.65c-9.19-8.38-23.08-10.37-34.5-3.95Z"/>
          <rect class="cls-3" x="111.63" y="378.63" width="6.32" height="4.18" rx=".81" ry=".81" transform="translate(-160.7 667.49) rotate(-119.37)"/>
          <rect class="cls-3" x="110.52" y="369.47" width="4.59" height="15.48" rx="2.29" ry="2.29" transform="translate(-160.58 660.53) rotate(-119.37)"/>
          <rect class="cls-3" x="131.53" y="367.44" width="6.32" height="4.18" rx=".81" ry=".81" transform="translate(-121.29 668.14) rotate(-119.37)"/>
          <rect class="cls-3" x="130.42" y="358.27" width="4.59" height="15.48" rx="2.29" ry="2.29" transform="translate(-121.17 661.18) rotate(-119.37)"/>
          <rect class="cls-3" x="151.43" y="356.24" width="6.32" height="4.18" rx=".81" ry=".81" transform="translate(-81.88 668.79) rotate(-119.37)"/>
          <rect class="cls-3" x="150.32" y="347.08" width="4.59" height="15.48" rx="2.29" ry="2.29" transform="translate(-81.76 661.83) rotate(-119.37)"/>
          <path class="cls-14" d="m121.77,381.32c-.44-.78-1.43-1.06-2.21-.62l-7.39,4.16c-.78.44-1.06,1.43-.62,2.21l12.82,22.78,10.22-5.75-12.82-22.78Z"/>
          <path class="cls-14" d="m141.67,370.12c-.44-.78-1.43-1.06-2.21-.62l-7.39,4.16c-.78.44-1.06,1.43-.62,2.21l12.82,22.78,10.22-5.75-12.82-22.78Z"/>
          <path class="cls-14" d="m161.56,358.92c-.44-.78-1.43-1.06-2.21-.62l-7.39,4.16c-.78.44-1.06,1.43-.62,2.21l12.82,22.78,10.22-5.75-12.82-22.78Z"/>
          <path class="cls-7" d="m220.34,342.39l-100.64,56.64-1.08.61-7.53,4.24c-11.42,6.42-16.92,19.34-14.53,31.54.59,3.01,1.66,5.98,3.24,8.8,8.01,14.23,26.1,19.3,40.34,11.29l65.07-36.62c14.23-8.01,19.3-26.1,11.29-40.34-1.59-2.82-3.57-5.27-5.84-7.34l-11.81,6.65c2.8,1.5,5.22,3.78,6.89,6.74,4.67,8.3,1.72,18.86-6.58,23.53l-65.07,36.62c-8.3,4.67-18.86,1.72-23.53-6.58-1.67-2.97-2.36-6.22-2.19-9.39.31-5.7,3.43-11.14,8.77-14.14l7.53-4.24,1.08-.61,100.64-56.64c2.37-1.34,2.94-4.83,1.27-7.8-1.67-2.97-4.95-4.29-7.32-2.96Z"/>
          <path class="cls-15" d="m233.89,352.47c-2.87,1.61-5.74,3.23-8.6,4.84-.6.33-1.22.06-1.42-.6-1.6-5.29-4.35-10.16-8.03-14.28-.46-.51-.37-1.19.22-1.52,2.87-1.61,5.74-3.23,8.6-4.84.59-.34,1.47-.2,1.93.31,3.69,4.12,6.43,8.99,8.03,14.28.2.66-.14,1.48-.73,1.81Z"/>
          <path class="cls-15" d="m238.11,356.82h0c-1.49.83-3.04.16-3.57-1.49-2.5-7.73-6.52-14.88-11.84-21.03-1.13-1.31-.9-2.99.58-3.83h0c1.48-.83,3.67-.51,4.79.8,5.31,6.15,9.34,13.3,11.84,21.03.53,1.64-.32,3.68-1.8,4.51Z"/>
          <path class="cls-14" d="m150.21,455.76c.44.78,1.43,1.06,2.21.62l7.39-4.16c.78-.44,1.06-1.43.62-2.21l-25.49-45.29-10.22,5.75,25.49,45.29Z"/>
          <path class="cls-14" d="m170.11,444.56c.44.78,1.43,1.06,2.21.62l7.39-4.16c.78-.44,1.06-1.43.62-2.21l-25.49-45.29-10.22,5.75,25.49,45.29Z"/>
          <path class="cls-14" d="m190.01,433.36c.44.78,1.43,1.06,2.21.62l7.39-4.16c.78-.44,1.06-1.43.62-2.21l-25.49-45.29-10.22,5.75,25.49,45.29Z"/>
          <ellipse class="cls-7" cx="37.64" cy="448.04" rx="20.11" ry="48.79" transform="translate(-214.9 76.04) rotate(-29.37)"/>
          <path class="cls-16" d="m13.49,406.07c8.37-4.86,19.22,3.52,25.22,9.05,15.32,14.73,29.25,40.31,28.11,61.99-.41,4.62-1.95,10.04-6.45,12.25-.22.11-.48.02-.59-.2-.1-.2-.03-.44.16-.56,6.93-5.21,4.34-17.4,2.56-24.72-4.19-15.09-11.88-29.19-21.68-41.37-5.66-6.56-12.06-13.61-20.61-16.06-2.08-.53-4.3-.5-6.28.4-.47.26-.9-.49-.43-.77h0Z"/>
          <path class="cls-6" d="m19.68,424.43c10.7-5.58,22.91,10.15,27.52,18.23,4.51,8.14,11.62,26.72,1.3,32.98-2.09.86-3.57-1.9-1.83-3.24,6.74-8.9-14-45.83-25.17-44.72-2.07.81-3.64-1.94-1.83-3.24h0Z"/>
        </g>
      </g>
      <g>
        <g>
          <path class="cls-4" d="m89.07,371.42c-5.18-3.55-5.71-10.31-4.3-16.91-.26.47-.5.93-.74,1.38-4.36,8.35-7.64,21.82.48,27.39s45.82-19.58,51.64-34.34c.91-2.29,1.18-4.22.93-5.83-11.28,14.61-40.93,33.17-48.01,28.31Z"/>
          <path class="cls-4" d="m87.53,389.53c-2.15,0-3.93-.5-5.38-1.49-9.54-6.54-7.76-21.05-1.76-32.54,2.77-5.31,11.21-21.46,31.61-22.34,15.37-.67,23.49,1.25,27.17,6.42,2.33,3.27,2.53,7.4.6,12.29-5.11,12.95-30.57,31.87-45.84,36.55-2.42.74-4.55,1.11-6.41,1.11Zm-.86-8.09s1.82.66,7.51-1.58c13.41-5.28,34.32-21.23,38.15-30.92.6-1.52,1.14-3.57.32-4.71-1.02-1.43-5.02-3.74-20.31-3.08-14,.61-20.64,9.97-24.87,18.06-3.52,6.75-6.65,18.23-.81,22.23h0Z"/>
        </g>
        <g>
          <path class="cls-4" d="m83.93,357.36c4.36-8.35,12.01-19.49,28.24-20.2,16.23-.71,28.62,1.24,23.88,13.25-5.82,14.75-43.53,39.9-51.64,34.34-8.12-5.56-4.84-19.04-.48-27.39Z"/>
          <path class="cls-24" d="m89.07,371.42c-5.18-3.55-5.71-10.31-4.3-16.91-.26.47-.5.93-.74,1.38-4.36,8.35-7.64,21.82.48,27.39s45.82-19.58,51.64-34.34c.91-2.29,1.18-4.22.93-5.83-11.28,14.61-40.93,33.17-48.01,28.31Z"/>
          <path class="cls-13" d="m87.53,389.53c-2.15,0-3.93-.5-5.38-1.49-9.54-6.54-7.76-21.05-1.76-32.54,2.77-5.31,11.21-21.46,31.61-22.34,15.37-.67,23.49,1.25,27.17,6.42,2.33,3.27,2.53,7.4.6,12.29-5.11,12.95-30.57,31.87-45.84,36.55-2.42.74-4.55,1.11-6.41,1.11Zm-.86-8.09s1.82.66,7.51-1.58c13.41-5.28,34.32-21.23,38.15-30.92.6-1.52,1.14-3.57.32-4.71-1.02-1.43-5.02-3.74-20.31-3.08-14,.61-20.64,9.97-24.87,18.06-3.52,6.75-6.65,18.23-.81,22.23h0Z"/>
        </g>
      </g>
      <g>
        <path class="cls-4" d="m316.32,430.82c-13.08,1.92-59.34,1.06-77.6-9.56-14.15-8.22-18.22-20.39-17.79-25.81.61-7.82,7.6-15.1,17.79-18.55.92-.31,1.93-.59,3.01-.82,6.89-1.52,16.29-1.42,26.23-1.32,12.14.13,25.27-.1,37.74-.51,12.95-.42,54.25-6.83,64.32,20.96,14.18,39.13-30.72,32.24-53.69,35.61Z"/>
        <path class="cls-24" d="m319.09,419.56c-13.08,1.92-59.34,1.06-77.6-9.56-10.86-6.31-16.01-13.96-17.52-20.08-2.32,2.88-2.78,2.21-3.04,5.53-.43,5.43,3.64,17.59,17.79,25.81,18.26,10.61,64.52,11.47,77.6,9.56,20.76-3.04,59.41,2.28,56.21-25.53-9.75,11.67-37.34,11.91-53.45,14.27Z"/>
        <path class="cls-13" d="m300.34,435.62c-19.77,0-49.22-2.51-63.64-10.89-15.51-9.01-20.32-22.63-19.77-29.58.74-9.41,8.78-18.06,20.49-22.03,1.06-.36,2.21-.68,3.43-.94,7.34-1.62,16.95-1.51,27.13-1.41,10.95.12,23.59-.05,37.57-.51,1.39-.04,3.17-.17,5.23-.3,17.21-1.17,53.02-3.59,62.98,23.9,4.08,11.27,3.96,19.94-.38,26.49-7.6,11.47-25.92,12.44-42.08,13.29-5.28.28-10.27.54-14.42,1.15-3.44.5-9.36.84-16.56.84Zm-39.81-56.91c-6.89,0-13.17.22-17.95,1.28-.93.21-1.8.44-2.59.71-8.54,2.89-14.6,8.95-15.08,15.08-.32,4.01,3.13,14.67,15.81,22.04,16.57,9.63,61.33,11.07,75.01,9.06h0c4.51-.66,9.68-.93,15.15-1.22,14.28-.75,30.46-1.61,35.83-9.72,2.8-4.23,2.64-10.74-.47-19.34-7.91-21.83-38.49-19.76-54.92-18.64-2.14.14-3.98.27-5.51.32-14.1.46-26.85.63-37.91.51-2.5-.03-4.98-.05-7.37-.05Z"/>
        <path class="cls-18" d="m388.21,351.33s-19.14,7.92-43.44,13.01c-18.58,3.89-38.48,3.4-38.48,3.4l1.33,63.15s64.37,9.43,107.92-13.85c8.77-4.69,18.24-11.85,17.28-25.75-1.82-26.32-44.61-39.97-44.61-39.97Z"/>
        <path class="cls-13" d="m312.12,437.63c-24.41,0-43.19-1.22-43.52-1.24-2.12-.14-3.76-1.92-3.73-4.05l.93-61.98c.03-2.17,1.79-3.92,3.96-3.94.72,0,72.13-.87,110.31-18.33,2.01-.92,4.38-.04,5.3,1.97s.04,4.38-1.97,5.3c-34.92,15.98-93.84,18.57-109.66,18.98l-.81,54.28c13.54.72,60.69,2.69,98.36-2.16,2.2-.29,4.2,1.26,4.48,3.46.28,2.19-1.26,4.2-3.46,4.48-19.52,2.52-41.51,3.23-60.19,3.23Z"/>
        <g>
          <rect class="cls-18" x="256.75" y="365.95" width="61.48" height="74.2" transform="translate(-11.72 8.62) rotate(-1.68)"/>
          <rect class="cls-2" x="276.74" y="365.95" width="21.52" height="74.2" transform="translate(-11.72 8.62) rotate(-1.68)"/>
          <path class="cls-13" d="m257.86,445.04c-1.02,0-2-.39-2.74-1.09-.77-.73-1.22-1.73-1.25-2.79l-2.18-74.17c-.06-2.21,1.67-4.05,3.88-4.12l61.46-1.81c1.07-.04,2.09.36,2.86,1.09.77.73,1.22,1.73,1.25,2.79l2.18,74.17c.06,2.21-1.67,4.05-3.88,4.12l-61.46,1.81s-.08,0-.12,0Zm1.94-74.29l1.95,66.17,53.46-1.57-1.95-66.17-53.46,1.57Z"/>
        </g>
      </g>
      <g>
        <g>
          <path class="cls-17" d="m447.59,349.95c-.8-2.42-2.74-4.14-5.02-4.78,1.44-1.88,1.96-4.41,1.16-6.83-1.29-3.86-5.46-5.95-9.32-4.67,0,0-3.81.44-5.96,5.46l-20.19,1.63-3.28,1.09-17.14,10.8c-4.73-2.73-8.04-.8-8.04-.8-3.86,1.29-5.95,5.46-4.67,9.32.8,2.42,2.74,4.14,5.02,4.78-1.44,1.88-1.96,4.41-1.16,6.83s2.74,4.14,5.02,4.78c-1.44,1.88-1.96,4.41-1.16,6.83s2.74,4.14,5.02,4.78c-1.44,1.88-1.96,4.41-1.16,6.83,1.26,3.78,5.28,5.85,9.07,4.74.06.47.16.95.32,1.41,1.29,3.86,5.46,5.95,9.32,4.67,1.24-.41,2.3-1.13,3.12-2.03.02.07.04.15.06.22,1.29,3.86,5.46,5.95,9.32,4.67,1.47-.49,2.68-1.41,3.55-2.56,1.54,1.51,3.7,2.29,5.9,2.07h0s0,0,0,0c.25-.03.5-.06.76-.11.28-.05.56-.12.84-.21h0s.07-.03.11-.04c.04-.01.07-.02.11-.03h0c.28-.09.54-.21.8-.33.23-.11.45-.23.67-.36,0,0,0,0,0,0h0c1.89-1.14,3.16-3.06,3.49-5.19,1.39.4,2.9.41,4.37-.08,3.86-1.29,5.95-5.46,4.67-9.32-.02-.07-.06-.14-.08-.21,1.2.23,2.47.17,3.71-.24,3.86-1.29,5.95-5.46,4.67-9.32-.16-.47-.36-.91-.59-1.32,3.7-1.38,5.68-5.45,4.42-9.23-.8-2.42-2.74-4.14-5.02-4.78,1.44-1.88,1.96-4.41,1.16-6.83-.8-2.42-2.74-4.14-5.02-4.78,1.44-1.88,1.96-4.41,1.16-6.83Z"/>
          <path class="cls-9" d="m415.6,411.05c-1.28,0-2.56-.3-3.74-.89-1.62-.81-2.9-2.09-3.71-3.67-.73.55-1.54.98-2.41,1.27-4.38,1.45-9.13-.92-10.59-5.3-.06-.17-.11-.35-.16-.53-4,.63-7.92-1.68-9.23-5.62-.74-2.22-.51-4.62.59-6.64-2.09-.96-3.71-2.75-4.45-4.96-.74-2.22-.51-4.62.59-6.64-2.09-.96-3.71-2.75-4.45-4.96-.74-2.22-.51-4.62.59-6.64-2.09-.96-3.71-2.75-4.45-4.97-.71-2.12-.54-4.39.46-6.39.99-1.97,2.68-3.45,4.76-4.17.63-.32,3.92-1.77,8.4.56l16.64-10.48c.07-.04.14-.08.22-.1l3.28-1.09c.08-.03.16-.04.24-.05l19.6-1.58c2.19-4.56,5.69-5.37,6.39-5.48,2.1-.68,4.33-.5,6.31.48,2,1,3.49,2.72,4.2,4.84.74,2.22.51,4.62-.59,6.64,2.09.96,3.71,2.75,4.45,4.96.74,2.22.51,4.62-.59,6.64,2.09.96,3.71,2.75,4.45,4.96s.51,4.62-.59,6.64c2.09.96,3.71,2.75,4.45,4.96,1.31,3.95-.44,8.15-4.02,10.04.07.17.13.34.19.52.71,2.12.54,4.39-.46,6.39-1,2-2.72,3.49-4.84,4.2-.87.29-1.77.44-2.69.43.68,4.01-1.64,8.03-5.61,9.35-1.27.42-2.61.53-3.93.32-.58,2.02-1.9,3.75-3.73,4.85-.02.01-.04.02-.07.04-.25.15-.47.27-.7.38-.28.14-.59.27-.91.37-.02,0-.06.02-.1.03-.04.02-.08.03-.13.05-.29.1-.6.18-.95.24-.26.05-.53.09-.81.12-.04,0-.09,0-.14,0-2.05.21-4.12-.39-5.79-1.66-.93.96-2.07,1.67-3.34,2.1-.87.29-1.76.43-2.65.43Zm-7.05-7.27c.07,0,.15,0,.22.03.35.08.63.34.74.69,0,.01.03.12.03.13.55,1.68,1.69,2.99,3.21,3.75,1.52.76,3.25.89,4.87.35,1.22-.4,2.28-1.17,3.06-2.21.17-.23.44-.37.72-.4.28-.03.57.08.77.28,1.34,1.32,3.19,1.96,5.07,1.79.01,0,.02,0,.03,0,.22-.02.43-.05.65-.09.25-.05.49-.11.72-.18l.07-.03s.14-.04.19-.05c.19-.07.41-.16.63-.27.21-.1.4-.21.59-.32,0,0,.02-.01.03-.02,1.61-.98,2.7-2.61,2.99-4.47.04-.29.21-.54.45-.69.24-.16.54-.2.82-.12,1.25.36,2.56.34,3.78-.06,3.33-1.11,5.14-4.72,4.04-8.06,0,0-.07-.17-.07-.18-.13-.34-.06-.72.17-.99s.6-.4.95-.34c1.07.21,2.18.13,3.21-.21,1.62-.54,2.92-1.67,3.69-3.19.76-1.52.89-3.25.35-4.87-.13-.39-.3-.78-.51-1.15-.14-.25-.17-.56-.07-.83.1-.27.32-.49.59-.59,3.23-1.2,4.91-4.71,3.82-7.98-.67-2.01-2.29-3.56-4.34-4.13-.32-.09-.57-.33-.68-.65-.1-.31-.05-.66.16-.92,1.3-1.68,1.67-3.89,1-5.91-.67-2.01-2.29-3.56-4.34-4.13-.32-.09-.57-.33-.68-.65-.1-.31-.05-.66.16-.92,1.3-1.69,1.67-3.89,1-5.91-.67-2.01-2.29-3.56-4.34-4.13-.32-.09-.57-.33-.68-.65-.1-.32-.05-.66.16-.92,1.3-1.69,1.67-3.89,1-5.9-.54-1.62-1.67-2.93-3.19-3.69-1.52-.76-3.25-.89-4.87-.35-.07.02-.13.04-.2.04-.12.02-3.28.49-5.15,4.86-.15.34-.47.57-.84.6l-20.07,1.62-3.05,1.02-17.04,10.73c-.31.2-.71.21-1.03.02-4.12-2.38-6.92-.86-7.04-.8-.05.03-.12.06-.18.08-1.62.54-2.92,1.67-3.69,3.19-.76,1.52-.89,3.25-.35,4.87.67,2.01,2.29,3.56,4.34,4.13.32.09.57.33.68.65.1.31.05.66-.16.92-1.3,1.69-1.67,3.89-1,5.91.67,2.01,2.29,3.56,4.34,4.13.32.09.57.33.68.65.1.32.05.66-.16.92-1.3,1.69-1.67,3.89-1,5.9.67,2.01,2.29,3.56,4.34,4.13.32.09.57.33.68.65.1.31.05.66-.16.92-1.3,1.68-1.67,3.89-1,5.91,1.09,3.27,4.53,5.07,7.84,4.09.28-.08.58-.04.83.12.25.16.41.42.44.71.05.42.15.83.28,1.23,1.11,3.33,4.72,5.14,8.06,4.03,1.03-.34,1.96-.95,2.69-1.75.19-.21.46-.33.74-.33Z"/>
        </g>
        <path class="cls-4" d="m451.39,344.83c-.8-2.42-2.73-4.14-5.01-4.79,1.45-1.87,1.97-4.41,1.17-6.83-1.28-3.87-5.45-5.97-9.31-4.69,0,0-3.81.43-5.97,5.44l-20.2,1.58-3.28,1.08-17.17,10.76c-4.72-2.74-8.04-.82-8.04-.82-3.87,1.28-5.97,5.45-4.69,9.31.8,2.42,2.73,4.14,5.01,4.79-1.45,1.87-1.97,4.41-1.17,6.83s2.73,4.14,5.01,4.79c-1.45,1.87-1.97,4.41-1.17,6.83s2.73,4.14,5.01,4.79c-1.45,1.87-1.97,4.41-1.17,6.83,1.25,3.78,5.26,5.87,9.06,4.76.06.47.16.95.32,1.42,1.28,3.87,5.45,5.97,9.31,4.69,1.24-.41,2.3-1.12,3.12-2.02.02.07.04.15.06.22,1.28,3.87,5.45,5.97,9.31,4.69,1.47-.49,2.68-1.4,3.55-2.55,1.54,1.52,3.69,2.3,5.9,2.08h0s0,0,0,0c.25-.02.5-.06.76-.11.28-.05.56-.12.84-.21h0s.07-.03.11-.04c.04-.01.07-.02.11-.03h0c.28-.09.54-.2.8-.33.23-.11.45-.23.67-.36,0,0,0,0,0,0h0c1.9-1.14,3.17-3.05,3.5-5.18,1.38.41,2.9.42,4.37-.07,3.87-1.28,5.97-5.45,4.69-9.31-.02-.07-.06-.14-.08-.21,1.2.23,2.47.18,3.71-.23,3.87-1.28,5.97-5.45,4.69-9.31-.15-.47-.35-.91-.59-1.33,3.71-1.37,5.69-5.44,4.44-9.22-.8-2.42-2.73-4.14-5.01-4.79,1.45-1.87,1.97-4.41,1.17-6.83s-2.73-4.14-5.01-4.79c1.45-1.87,1.97-4.41,1.17-6.83Z"/>
        <g>
          <path class="cls-22" d="m392.3,354.45c.41-.72.17-1.63-.55-2.04-.72-.42-1.63-.17-2.05.54-.02.03-1.84,3.11-4.84,4.46-2.84,1.28-4.76.64-4.82.62,0,0,0,0,0,0,.98,1.28,2.34,2.21,3.86,2.64-.07.09-.12.18-.18.27.73-.16,1.52-.41,2.37-.79,3.91-1.76,6.11-5.54,6.21-5.7Z"/>
          <path class="cls-22" d="m396.43,366.08c.38-.73.1-1.64-.63-2.02-.74-.38-1.64-.1-2.02.63-.02.03-1.58,2.97-4.57,4.41-2.8,1.35-4.74.75-4.8.74-.15-.05-.3-.07-.45-.08.97,1.23,2.3,2.11,3.78,2.53-.13.17-.25.35-.37.54.93-.16,1.98-.47,3.13-1.02,3.87-1.86,5.84-5.56,5.92-5.72Z"/>
          <path class="cls-22" d="m400.4,377.4c.38-.73.1-1.63-.62-2.02-.73-.38-1.64-.11-2.03.62-.01.03-1.39,2.52-4.75,4.16-2.81,1.37-4.76.84-4.82.82-.23-.07-.47-.08-.7-.04.96,1.42,2.37,2.44,3.97,2.92.86-.19,1.82-.5,2.86-1,4.29-2.09,6.02-5.31,6.09-5.45Z"/>
          <path class="cls-22" d="m438.14,337.93c-.72-.39-1.63-.12-2.02.61-.4.73-.13,1.64.6,2.03.21.11,1.68.86,4.14.86.85,0,1.81-.09,2.88-.32,1.08-.24,2.04-.59,2.88-.98-.08-.03-.16-.06-.25-.09.95-1.23,1.49-2.74,1.53-4.32-.68.61-2.36,1.93-4.81,2.46-3.07.67-4.86-.2-4.97-.25Z"/>
          <path class="cls-22" d="m441.58,349.2c-.71-.4-1.62-.15-2.03.56-.41.72-.17,1.64.55,2.05.21.12,1.77.97,4.42.97.77,0,1.64-.07,2.59-.25,1.14-.22,2.19-.53,3.12-.86,0,0-.01,0-.02,0,.87-1.12,1.39-2.48,1.51-3.9-1.03.54-2.91,1.39-5.18,1.83-3.09.59-4.86-.32-4.96-.37Z"/>
          <path class="cls-22" d="m445.15,360.08c-.72-.4-1.62-.15-2.03.56-.41.72-.17,1.63.55,2.05.21.12,2.04,1.11,5.69,1.11.24,0,.49,0,.75-.01,1.43-.05,2.8-.3,4-.61.78-1.04,1.27-2.28,1.42-3.59-1.25.47-3.34,1.12-5.52,1.2-3.24.12-4.79-.67-4.86-.71Z"/>
          <path class="cls-22" d="m404.85,387.82c.21-.8-.27-1.62-1.07-1.83-.8-.21-1.62.27-1.83,1.07,0,.03-.85,3.08-3.34,5.13-2.38,1.96-4.52,1.86-4.59,1.87-.36-.02-.71.09-.98.29,1.64,1.2,3.74,1.71,5.83,1.29.54-.31,1.09-.67,1.65-1.13,3.26-2.68,4.29-6.52,4.33-6.68Z"/>
          <path class="cls-22" d="m414.17,391.98c-.25-.79-1.09-1.23-1.88-.98-.79.25-1.23,1.09-.98,1.88,0,.02.48,1.79-.72,4.19-1.25,2.5-4.61,3.93-4.64,3.94-.36.15-.63.43-.78.76,1.26.29,2.61.25,3.93-.18,1.24-.41,2.3-1.12,3.12-2.02.02.07.04.15.06.22.01.04.03.07.04.11.36-.45.69-.94.95-1.48,1.75-3.49.99-6.15.9-6.44Z"/>
          <path class="cls-22" d="m441.21,383.83c-.8-.14-1.55.39-1.7,1.19-.16.8.37,1.58,1.16,1.76.01,0,1.39.33,3.21,2.38,1.82,2.04,2.28,4.25,2.4,5.17,1-1.75,1.29-3.9.61-5.97-.02-.07-.06-.14-.08-.21.04,0,.07,0,.11.01-.24-.33-.5-.67-.8-1-2.54-2.86-4.67-3.29-4.9-3.33Z"/>
          <path class="cls-22" d="m448.37,374.56c.27-.78,1.12-1.2,1.9-.93,0,0,.06.02.16.05-2.42-.79-4.11-.51-4.34-.46-.8.16-1.32.94-1.17,1.74.15.81.94,1.34,1.74,1.2.06-.01,1.18-.19,2.88.38-.12-.04-.22-.07-.24-.07-.78-.27-1.2-1.12-.93-1.91Z"/>
          <path class="cls-22" d="m449.54,376.54c.57.19,1.2.46,1.88.85,2.67,1.53,3.26,3.45,3.28,3.51.12.44.42.76.8.94.14-1.06.05-2.16-.31-3.25-.15-.47-.35-.91-.59-1.33.17-.06.32-.13.48-.21-.48.06-.96.09-1.42.09-1.89,0-3.53-.44-4.13-.62Z"/>
          <path class="cls-22" d="m455.65,373.88c-2.01.66-4.56-.01-5.22-.21.76.25,1.6.61,2.49,1.11,1.13.65,1.99,1.36,2.65,2.04,2.1-1.14,3.49-3.21,3.79-5.52-.38.49-1.59,1.87-3.71,2.57Z"/>
          <path class="cls-22" d="m449.54,376.54s0,0,0,0c0,0,0,0,0,0Z"/>
          <path class="cls-22" d="m452.92,374.79c-.89-.51-1.72-.86-2.49-1.11-.1-.03-.16-.05-.16-.05-.78-.27-1.63.15-1.9.93s.15,1.64.93,1.91c.02,0,.11.04.24.07,0,0,0,0,0,0,.59.18,2.24.62,4.13.62.46,0,.94-.03,1.42-.09.16-.07.32-.15.47-.24-.66-.69-1.52-1.4-2.65-2.04Z"/>
          <path class="cls-22" d="m424.8,393.21c-.49-.66-1.4-.8-2.07-.33-.67.47-.82,1.41-.36,2.08.04.06,1.03,1.53.71,4.21-.34,2.84-2.65,5.39-2.67,5.41-.05.05-.07.12-.11.18.43-.06.87-.15,1.3-.3,1.47-.49,2.68-1.4,3.55-2.55.08.07.16.14.24.21.32-.81.57-1.68.67-2.6.46-3.86-1.08-6.08-1.25-6.32Z"/>
          <path class="cls-22" d="m432.99,390.41c-.68-.47-1.61-.29-2.08.38-.47.68-.31,1.61.37,2.09.02.01,1.63,1.17,3.02,3.77,1.12,2.09,1.2,4.54,1.19,5.39,1.24-1.13,2.07-2.65,2.33-4.3.04.01.08.02.13.03-.23-.83-.55-1.7-1-2.53-1.76-3.29-3.87-4.76-3.96-4.82Z"/>
        </g>
        <g>
          <path class="cls-18" d="m425.49,391.94c-9.74,3.21-20.27-2.09-23.49-11.83l-10.48-31.73s4.5-5.7,19.56-10.67c15.07-4.97,22.07-3.08,22.07-3.08l10.48,31.73c3.21,9.74-2.09,20.27-11.83,23.49l-6.32,2.09Z"/>
          <path class="cls-22" d="m419.68,395.88c-9.07,0-17.53-5.76-20.52-14.83l-10.48-31.73c-.32-.96-.13-2.01.49-2.8.52-.66,5.5-6.55,20.98-11.66,15.47-5.11,22.99-3.34,23.8-3.12.97.26,1.75,1,2.06,1.96l10.48,31.73c3.73,11.31-2.43,23.54-13.74,27.28l-6.32,2.09c-2.24.74-4.52,1.09-6.75,1.09Zm-24.72-46.66l9.89,29.96c2.7,8.17,11.54,12.61,19.7,9.92h0l6.32-2.09c8.17-2.7,12.62-11.53,9.92-19.7l-9.89-29.96c-2.63-.19-8.84-.09-18.87,3.21-10.01,3.3-15.05,6.91-17.07,8.65Z"/>
        </g>
      </g>
    </g>
  </g>
</svg>